<?xml version="1.0" standalone="no"?>
<!DOCTYPE svg PUBLIC "-//W3C//DTD SVG 20010904//EN"
 "http://www.w3.org/TR/2001/REC-SVG-20010904/DTD/svg10.dtd">
<svg version="1.0" xmlns="http://www.w3.org/2000/svg"
 width="200.000000pt" height="200.000000pt" viewBox="0 0 200.000000 200.000000"
 preserveAspectRatio="xMidYMid meet">
<metadata>
Created by potrace 1.10, written by Peter Selinger 2001-2011
</metadata>
<g transform="translate(0.000000,200.000000) scale(0.100000,-0.100000)"
fill="#000000" stroke="none">
<path d="M700 1231 l0 -51 206 0 205 0 -3 48 -3 47 -202 3 -203 3 0 -50z m388
5 c0 -24 -44 -51 -54 -35 -4 6 -11 6 -19 -1 -9 -8 -15 -8 -20 0 -3 6 -11 7
-17 3 -13 -7 -100 -6 -195 3 -57 6 -63 9 -63 29 l0 22 184 0 c181 0 184 0 184
-21z"/>
<path d="M891 1115 l-2 -45 206 0 205 0 0 45 0 45 -203 0 -203 0 -3 -45z m371
18 c-9 -4 -6 -10 9 -24 22 -19 20 -19 -169 -19 -130 0 -192 3 -192 11 0 6 9 8
20 4 12 -4 20 -2 20 5 0 7 -10 15 -22 18 l-23 6 23 5 c28 7 352 1 334 -6z"/>
<path d="M965 1110 c3 -5 11 -10 16 -10 6 0 7 5 4 10 -3 6 -11 10 -16 10 -6 0
-7 -4 -4 -10z"/>
<path d="M1030 1110 c-19 -6 -12 -8 32 -9 31 -1 59 3 62 7 6 11 -63 12 -94 2z"/>
<path d="M1150 1110 c0 -5 5 -10 10 -10 6 0 10 5 10 10 0 6 -4 10 -10 10 -5 0
-10 -4 -10 -10z"/>
<path d="M770 1000 l0 -50 205 0 205 0 0 50 0 50 -205 0 -205 0 0 -50z m390 2
l0 -30 -185 -1 -185 -2 0 28 0 28 185 4 185 3 0 -30z"/>
<path d="M190 800 l0 -71 58 3 c56 3 57 3 60 36 2 19 -1 32 -8 32 -7 0 -9 8
-5 20 10 32 -12 50 -61 50 l-44 0 0 -70z m70 25 c0 -8 -7 -15 -15 -15 -8 0
-15 7 -15 15 0 8 7 15 15 15 8 0 15 -7 15 -15z m8 -53 c2 -7 -6 -12 -17 -12
-21 0 -27 11 -14 24 9 9 26 2 31 -12z"/>
<path d="M339 863 c-3 -35 0 -113 5 -121 10 -16 53 -23 80 -12 24 9 26 14 26
75 0 58 -2 65 -20 65 -18 0 -20 -7 -20 -55 0 -42 -3 -55 -15 -55 -12 0 -15 13
-15 55 0 48 -2 55 -20 55 -11 0 -20 -3 -21 -7z"/>
<path d="M487 863 c-4 -3 -7 -35 -7 -70 l0 -64 58 3 57 3 3 53 c2 31 -2 60 -9
68 -12 14 -90 20 -102 7z m73 -68 c0 -23 -5 -35 -14 -35 -8 0 -15 14 -18 35
-3 29 -1 35 14 35 14 0 18 -8 18 -35z"/>
<path d="M648 859 c-13 -7 -18 -23 -18 -54 0 -69 5 -75 66 -75 l54 0 0 35 c0
31 -3 35 -25 35 -19 0 -25 -5 -23 -17 2 -10 -4 -19 -14 -21 -15 -3 -18 4 -18
32 0 33 2 36 30 36 23 0 30 4 30 20 0 16 -7 20 -32 20 -18 0 -41 -5 -50 -11z"/>
<path d="M770 800 l0 -70 55 0 c42 0 55 3 55 15 0 10 -11 15 -35 15 -19 0 -35
5 -35 10 0 6 11 10 25 10 16 0 25 6 25 15 0 9 -9 15 -25 15 -14 0 -25 5 -25
10 0 6 16 10 35 10 28 0 35 4 35 20 0 18 -7 20 -55 20 l-55 0 0 -70z m35 0 c3
-5 1 -10 -4 -10 -6 0 -11 5 -11 10 0 6 2 10 4 10 3 0 8 -4 11 -10z"/>
<path d="M900 850 c0 -11 7 -20 15 -20 11 0 15 -12 15 -50 0 -45 2 -50 23 -50
20 0 22 4 19 50 -4 45 -2 50 17 50 14 0 21 6 21 20 0 18 -7 20 -55 20 -48 0
-55 -2 -55 -20z"/>
<path d="M1080 800 l0 -70 55 0 c51 0 55 2 61 27 5 17 2 30 -7 37 -8 6 -13 22
-11 35 5 29 -12 41 -60 41 l-38 0 0 -70z m68 22 c2 -7 -3 -12 -12 -12 -9 0
-16 7 -16 16 0 17 22 14 28 -4z m10 -49 c2 -8 -5 -13 -17 -13 -12 0 -21 6 -21
16 0 18 31 15 38 -3z"/>
<path d="M1222 803 c3 -63 4 -67 31 -74 15 -4 39 -4 55 0 26 7 27 11 30 74 3
62 1 67 -18 67 -18 0 -20 -6 -20 -55 0 -48 -2 -55 -20 -55 -18 0 -20 7 -20 55
0 49 -2 55 -20 55 -19 0 -21 -5 -18 -67z"/>
<path d="M1370 800 l0 -70 54 0 c61 0 66 6 66 75 0 52 -16 65 -79 65 l-41 0 0
-70z m80 -5 c0 -28 -4 -35 -20 -35 -16 0 -20 7 -20 35 0 28 4 35 20 35 16 0
20 -7 20 -35z"/>
<path d="M1520 800 l0 -70 48 0 c26 0 53 5 60 12 7 7 12 33 12 60 0 55 -15 68
-79 68 l-41 0 0 -70z m80 -5 c0 -28 -4 -35 -20 -35 -16 0 -20 7 -20 35 0 28 4
35 20 35 16 0 20 -7 20 -35z"/>
<path d="M1660 841 c0 -15 9 -40 20 -54 11 -14 20 -32 20 -41 0 -9 8 -16 20
-16 11 0 20 6 20 14 0 7 9 25 20 39 11 14 20 39 20 56 0 24 -4 31 -20 31 -15
0 -20 -7 -20 -29 0 -17 -5 -33 -11 -37 -14 -8 -29 14 -29 44 0 15 -6 22 -20
22 -15 0 -20 -7 -20 -29z"/>
</g>
</svg>
